<?xml version="1.0" encoding="UTF-8"?>
<!DOCTYPE svg PUBLIC "-//W3C//DTD SVG 1.1//EN" "http://www.w3.org/Graphics/SVG/1.1/DTD/svg11.dtd">
<!-- Creator: CorelDRAW X8 -->
<svg xmlns="http://www.w3.org/2000/svg" xml:space="preserve" width="500px" height="384px" version="1.1" style="shape-rendering:geometricPrecision; text-rendering:geometricPrecision; image-rendering:optimizeQuality; fill-rule:evenodd; clip-rule:evenodd"
viewBox="0 0 500 383"
 xmlns:xlink="http://www.w3.org/1999/xlink">
 <defs>
  <style type="text/css">
   <![CDATA[
    .str0 {stroke:black;stroke-width:1.66667}
    .fil4 {fill:none}
    .fil1 {fill:#FEFEFE}
    .fil0 {fill:#DCDDDD}
    .fil3 {fill:#069BD3}
    .fil2 {fill:#0C6D9A}
   ]]>
  </style>
 </defs>
 <g id="Layer_x0020_1">
  <metadata id="CorelCorpID_0Corel-Layer"/>
  <path class="fil0" d="M246 313c-23,6 -45,4 -58,-2 -60,-30 -17,-68 -70,-71 -54,-3 -39,-57 -7,-91 39,-41 16,-47 87,-77 28,-12 38,0 45,13 46,0 82,30 91,51 29,61 -26,60 13,97 39,37 -4,66 -48,69 -30,3 -39,10 -53,11z"/>
  <rect class="fil1" x="119" y="100" width="224" height="151"/>
  <g id="_2024934983680">
   <path class="fil2" d="M114 111l0 16 6 0c0,-8 -2,-23 9,-23l201 0c3,0 5,1 6,3 2,1 3,4 3,7l0 129 -219 0 0 -103 -6 0 0 122c0,4 3,9 6,11 4,3 7,4 14,4l65 0 0 13c-6,0 -11,0 -17,4 -5,4 -10,16 -1,16l97 0c9,0 4,-13 0,-16 -6,-4 -11,-4 -18,-4l0 -13 65 0c7,0 10,-1 14,-4 3,-2 7,-7 7,-11l0 -151c0,-4 -4,-8 -6,-10 -3,-3 -7,-5 -13,-5l-195 0c-6,0 -9,2 -13,4 -2,3 -5,7 -5,11z"/>
   <polygon class="fil2" points="216,263 243,263 243,256 216,256 "/>
  </g>
  <g id="_2024934981376">
   <path class="fil3" d="M207 160l0 61 -11 0 0 -34c0,-3 -2,-5 -5,-5l-10 0c-1,0 -2,0 -3,1 -1,1 -2,2 -2,4l0 34 -10 0 0 -17c0,-3 -3,-6 -5,-6l-11 0c-3,0 -4,3 -4,6l0 17 -5 0c-2,0 -2,4 0,4l90 0c2,0 2,-4 0,-4l-4 0 0 -61c0,-8 -7,-6 -14,-6 -3,0 -5,1 -6,3 0,1 0,2 0,3z"/>
   <path class="fil3" d="M211 127c0,3 2,2 4,2 1,0 3,0 5,0l-19 19 -7 -7c-2,-1 -3,0 -5,2 -4,4 -7,8 -11,12l-17 16c-1,1 -5,5 -5,6 0,2 1,3 2,2 1,0 6,-5 7,-6 2,-2 26,-27 27,-27 3,1 7,7 9,7 1,0 5,-4 6,-5 1,-1 15,-15 16,-16 0,1 0,7 0,7 1,2 4,2 4,-1l0 -10c0,-1 -1,-3 -2,-3l-12 0c-1,0 -2,1 -2,2z"/>
   <path class="fil3" d="M153 184c0,-2 -3,-3 -4,-1 0,2 1,4 3,3 0,0 1,0 1,-1 0,0 0,-1 0,-1z"/>
  </g>
  <g id="_2024934981952">
   <path class="fil2" d="M252 135l0 10c1,2 1,7 1,9 1,3 2,6 3,9 1,5 3,10 6,14 5,9 13,17 21,22 8,6 18,10 30,12 18,2 24,-2 37,-6 1,-1 7,-3 11,-6 18,-14 29,-33 29,-57 0,-7 -2,-24 -6,-28 -1,0 -2,1 -3,2 -13,10 2,8 -3,36 -2,8 -4,14 -8,20 -4,7 -9,12 -15,17 -2,1 -3,2 -5,2 -2,2 -5,4 -9,5 -18,7 -42,3 -56,-10 -1,-1 -2,-2 -4,-3 -18,-17 -22,-45 -10,-69 2,-3 9,-12 12,-15 16,-14 41,-20 61,-10 3,2 6,4 9,5 5,-5 5,-4 9,-8 -22,-18 -58,-16 -80,-1 -2,1 -3,2 -4,4 -11,9 -18,19 -23,33 -1,4 -1,10 -3,13z"/>
   <path class="fil2" d="M399 90l0 -3c-2,-4 -2,-5 -5,-7 -2,-1 -5,-2 -8,-1 -3,0 -16,10 -19,13l-11 9c-5,5 -6,7 -10,11l-4 5c-2,2 -2,2 -3,3 -1,2 -1,2 -2,3l-13 18c-2,3 -6,11 -9,13 -1,-4 -6,-9 -8,-12 -3,-4 -6,-9 -9,-12 -8,-9 -24,2 -14,14l17 23c5,6 9,15 16,15 10,1 11,-9 15,-16 6,-11 13,-21 20,-31 4,-5 15,-17 19,-21l9 -7c6,-5 8,-6 14,-11 3,-2 3,-3 5,-6z"/>
  </g>
  <g id="_2024933412752">
   <path class="fil4 str0" d="M253 131l0 10c1,2 1,6 1,9 1,3 2,5 3,8 1,6 3,10 6,15 5,8 13,16 21,22 8,5 18,9 30,11 18,2 24,-2 37,-6 1,-1 7,-3 11,-6 18,-13 29,-33 29,-57 0,-6 -2,-24 -6,-28 -1,1 -2,2 -3,3 -13,9 2,8 -3,36 -2,7 -4,14 -8,19 -4,7 -9,12 -15,17 -2,1 -3,2 -5,3 -3,1 -5,3 -9,4 -18,7 -42,3 -56,-9 -1,-2 -3,-2 -4,-4 -18,-17 -22,-45 -10,-69 2,-3 9,-12 12,-15 16,-13 41,-19 61,-9 3,1 6,3 9,4 4,-4 5,-4 8,-8 -21,-18 -57,-15 -79,0 -2,1 -3,1 -4,3 -12,9 -18,19 -23,33 -1,4 -1,10 -3,14z"/>
   <path class="fil4 str0" d="M399 85l0 -3c-2,-4 -2,-5 -4,-7 -2,-1 -5,-2 -9,-1 -3,1 -15,10 -19,13l-10 9c-6,5 -7,7 -10,11l-5 5c-2,2 -1,2 -3,3 -1,2 -1,2 -2,3l-13 18c-2,3 -6,11 -8,13 -2,-4 -7,-9 -9,-12 -3,-4 -6,-9 -9,-12 -8,-9 -23,2 -14,14l18 23c4,6 9,15 15,15 10,1 11,-9 15,-16 6,-11 13,-21 20,-30 5,-6 15,-18 20,-22l8 -7c6,-5 9,-6 14,-11 3,-2 3,-2 5,-6z"/>
  </g>
 </g>
</svg>
