<?xml version="1.0" encoding="UTF-8"?>
<!DOCTYPE svg PUBLIC "-//W3C//DTD SVG 1.1//EN" "http://www.w3.org/Graphics/SVG/1.1/DTD/svg11.dtd">
<!-- Creator: CorelDRAW X8 -->
<svg xmlns="http://www.w3.org/2000/svg" xml:space="preserve" width="598px" height="459px" version="1.1" style="shape-rendering:geometricPrecision; text-rendering:geometricPrecision; image-rendering:optimizeQuality; fill-rule:evenodd; clip-rule:evenodd"
viewBox="0 0 598 458"
 xmlns:xlink="http://www.w3.org/1999/xlink">
 <defs>
  <style type="text/css">
   <![CDATA[
    .str0 {stroke:black;stroke-width:1.99333}
    .fil4 {fill:none}
    .fil1 {fill:#FEFEFE}
    .fil0 {fill:#DCDDDD}
    .fil3 {fill:#069BD3}
    .fil2 {fill:#0C6D9A}
   ]]>
  </style>
 </defs>
 <g id="Layer_x0020_1">
  <metadata id="CorelCorpID_0Corel-Layer"/>
  <path class="fil0" d="M294 374c-28,8 -54,5 -69,-2 -71,-36 -21,-81 -84,-85 -64,-4 -46,-68 -8,-108 47,-50 19,-56 104,-93 33,-14 45,0 54,15 55,1 97,37 109,61 34,73 -31,73 15,117 46,44 -5,79 -57,83 -36,2 -47,11 -64,12z"/>
  <rect class="fil1" x="143" y="120" width="267" height="181"/>
  <g id="_2024927739472">
   <path class="fil2" d="M136 133l0 19 8 0c0,-10 -3,-28 11,-28l240 0c3,0 6,2 7,4 2,2 3,4 3,8l0 155 -261 0 0 -124 -8 0 0 146c0,6 4,12 8,14 5,3 8,4 17,4l78 0 0 16c-9,0 -15,0 -21,5 -6,4 -12,19 -1,19l116 0c10,0 4,-15 -1,-19 -7,-5 -13,-5 -21,-5l0 -16 78 0c8,0 12,-1 17,-4 3,-2 7,-8 7,-14l0 -180c0,-5 -3,-10 -6,-13 -4,-3 -9,-5 -15,-5l-234 0c-7,0 -11,2 -15,5 -3,3 -7,8 -7,13z"/>
   <polygon class="fil2" points="259,315 291,315 291,306 259,306 "/>
  </g>
  <g id="_2024927736464">
   <path class="fil3" d="M247 191l0 73 -12 0 0 -41c0,-3 -3,-6 -6,-6l-12 0c-2,0 -3,1 -4,2 -1,1 -2,3 -2,4l0 41 -13 0 0 -20c0,-4 -3,-7 -6,-7l-12 0c-4,0 -6,3 -6,8l0 19 -5 0c-3,0 -3,5 0,5l107 0c3,0 3,-5 0,-5l-5 0 0 -73c0,-9 -8,-7 -16,-7 -3,0 -6,1 -7,4 -1,1 -1,2 -1,3z"/>
   <path class="fil3" d="M252 152c0,3 2,3 5,3 2,0 4,0 6,0l-23 22 -8 -8c-3,-2 -4,0 -6,2 -4,5 -9,9 -13,14l-20 20c-2,1 -7,6 -7,7 0,2 2,3 3,3 2,-1 7,-7 9,-8 2,-3 31,-32 32,-33 3,2 8,9 11,9 1,0 5,-5 6,-6 2,-2 18,-18 19,-19 0,2 0,8 1,9 1,2 4,2 4,-2l0 -12c0,-2 0,-3 -2,-3l-15 0c-1,0 -2,1 -2,2z"/>
   <path class="fil3" d="M183 220c0,-2 -3,-3 -4,-1 -1,2 1,4 3,3 0,0 1,0 1,0 0,-1 0,-2 0,-2z"/>
  </g>
  <g id="_2024927735440">
   <path class="fil2" d="M302 162l0 12c0,2 1,7 1,10 1,4 2,7 3,11 2,7 4,11 7,17 6,10 16,20 25,26 10,7 22,12 37,14 21,3 28,-2 44,-7 1,-1 8,-4 13,-7 22,-16 35,-40 35,-68 0,-8 -3,-29 -8,-34 -1,1 -2,2 -4,3 -15,12 3,10 -3,43 -2,9 -5,17 -9,23 -5,9 -11,15 -19,21 -2,1 -3,2 -5,3 -3,2 -7,4 -11,5 -21,9 -51,4 -67,-11 -2,-2 -3,-3 -5,-4 -22,-21 -26,-54 -12,-83 3,-4 10,-14 14,-17 20,-17 50,-24 74,-12 3,2 7,4 11,5 5,-5 5,-4 9,-9 -25,-22 -68,-19 -95,-1 -2,1 -3,2 -5,4 -13,11 -22,23 -27,40 -1,5 -2,12 -3,16z"/>
   <path class="fil2" d="M477 108l0 -5c-2,-3 -2,-5 -5,-7 -3,-2 -6,-3 -10,-2 -4,1 -19,12 -23,15l-13 12c-6,6 -7,8 -12,13l-6 6c-1,2 -1,2 -3,4 -1,1 -1,2 -2,3l-16 22c-2,3 -7,13 -10,15 -1,-5 -7,-10 -10,-15 -3,-4 -7,-9 -11,-13 -10,-11 -28,2 -17,17l21 27c6,7 11,17 19,18 12,1 13,-12 18,-20 7,-12 15,-25 24,-36 5,-6 18,-21 23,-25l10 -9c8,-7 10,-8 17,-13 4,-2 4,-3 6,-7z"/>
  </g>
  <g id="_2024927732272">
   <path class="fil4 str0" d="M303 156l0 12c1,3 1,8 1,11 1,4 2,7 3,10 2,7 4,12 8,18 5,9 15,20 24,26 11,6 22,11 37,13 21,3 29,-2 44,-6 1,-2 8,-4 13,-8 22,-16 35,-39 35,-68 0,-8 -3,-29 -8,-34 -1,1 -2,3 -4,4 -14,11 3,9 -3,43 -2,8 -5,16 -9,23 -5,9 -11,14 -19,20 -2,2 -3,2 -5,3 -3,2 -7,4 -11,6 -21,8 -50,3 -67,-12 -2,-1 -3,-2 -5,-4 -21,-20 -26,-54 -11,-82 2,-4 10,-15 14,-18 19,-16 49,-23 73,-12 4,2 7,4 11,6 5,-6 5,-5 10,-10 -26,-22 -69,-18 -96,-1 -2,2 -3,3 -5,4 -13,11 -21,24 -27,41 -1,4 -1,11 -3,15z"/>
   <path class="fil4 str0" d="M477 102l0 -4c-2,-4 -2,-6 -5,-8 -2,-2 -6,-3 -10,-2 -4,1 -19,12 -23,16l-12 11c-7,6 -8,8 -13,13l-5 6c-2,2 -2,2 -3,4 -1,2 -2,2 -3,3l-16 22c-2,3 -7,13 -10,15 -1,-4 -7,-10 -10,-14 -3,-5 -7,-10 -11,-14 -9,-11 -28,2 -16,17l21 27c5,7 11,18 18,18 12,1 14,-11 18,-19 7,-13 15,-26 24,-37 5,-6 18,-21 23,-25l10 -9c8,-6 11,-8 18,-13 3,-2 3,-3 5,-7z"/>
  </g>
 </g>
</svg>
