<?xml version="1.0" encoding="UTF-8"?>
<!DOCTYPE svg PUBLIC "-//W3C//DTD SVG 1.1//EN" "http://www.w3.org/Graphics/SVG/1.1/DTD/svg11.dtd">
<!-- Creator: CorelDRAW X8 -->
<svg xmlns="http://www.w3.org/2000/svg" xml:space="preserve" width="598px" height="459px" version="1.1" style="shape-rendering:geometricPrecision; text-rendering:geometricPrecision; image-rendering:optimizeQuality; fill-rule:evenodd; clip-rule:evenodd"
viewBox="0 0 598 459"
 xmlns:xlink="http://www.w3.org/1999/xlink">
 <defs>
  <style type="text/css">
   <![CDATA[
    .str0 {stroke:black;stroke-width:4.98802}
    .fil1 {fill:none}
    .fil3 {fill:#EEEEEF}
    .fil0 {fill:#DCDDDD}
    .fil4 {fill:#0C6D9A}
    .fil2 {fill:#FDFDFD}
   ]]>
  </style>
 </defs>
 <g id="Layer_x0020_1">
  <metadata id="CorelCorpID_0Corel-Layer"/>
  <path class="fil0" d="M318 353c-28,7 -54,4 -69,-3 -73,-36 -22,-81 -85,-85 -65,-4 -47,-68 -9,-109 48,-50 20,-56 105,-92 34,-15 46,-1 54,15 56,0 99,36 110,61 34,73 -31,72 15,116 47,45 -4,80 -57,84 -36,3 -47,11 -64,13z"/>
  <g id="_2024933362864">
   <path class="fil1 str0" d="M204 130c14,4 39,15 53,20 10,4 45,20 53,17 11,-4 74,-43 92,-51l3 28 -53 30c-9,5 -18,10 -27,15 -11,6 -16,13 -28,8 -20,-8 -41,-15 -61,-23 -28,-10 -40,-10 -32,-44zm202 4c-2,-23 0,-18 15,-28l0 -9c-30,-10 -66,-18 -97,-26 -17,-5 -17,-2 -45,11 -15,7 -27,13 -42,19 -10,5 -33,13 -39,21 -10,13 -8,37 1,48 10,10 80,26 86,36 -8,2 -44,-12 -54,-15 -50,-17 -35,-8 -44,-28 -5,1 -15,8 -20,11 -4,3 -7,4 -10,6 -15,10 0,12 3,26 8,37 -13,15 -11,38 12,8 54,10 67,18 13,9 5,4 22,-16 8,-4 -7,-15 -16,-3l-3 8 -57 -14c2,-20 3,-21 -2,-41l110 23c8,16 5,27 0,43l-24 -4 -1 10c26,6 24,13 42,-4l80 -67c5,-5 10,-11 17,-12 -3,4 -2,3 -7,7 -22,18 -83,78 -101,91l-32 -8 -1 12c6,4 16,10 22,13 8,4 13,-2 21,-8l83 -51c12,-7 29,-19 41,-25 0,23 -9,9 1,51l-105 65c-41,26 -35,26 -52,16l-53 -30c-39,-23 -48,-20 -43,-66l-9 -2c-6,16 -3,37 6,50 8,10 64,39 80,48 18,12 30,22 39,15 26,-16 52,-32 78,-48 13,-8 26,-16 40,-25 18,-11 33,-16 32,-27 -6,-3 -21,3 -14,-34 6,-32 17,-10 17,-32l-38 -19 4 -12c-17,7 -38,22 -54,27 12,-8 25,-15 39,-23 13,-7 25,-15 39,-22l0 -11 -11 -3z"/>
   <path class="fil2" d="M158 252c-8,34 -4,41 25,52 20,7 59,35 79,43 12,5 30,-12 41,-18 9,-5 27,-16 36,-21 25,-16 50,-32 75,-48 -9,-17 -9,-36 -2,-58 -18,8 -131,79 -141,83 -9,4 -45,-19 -55,-23 -14,-6 -44,-7 -58,-10z"/>
   <path class="fil2" d="M204 119c-9,34 4,45 32,55 20,8 41,15 61,23 12,5 17,-2 28,-8 9,-5 18,-10 27,-15l53 -30 -4 -39c-18,8 -80,43 -90,47 -34,-6 -84,-28 -107,-33z"/>
   <path class="fil3" d="M206 105c-8,32 4,43 32,53 20,7 40,14 60,21 12,5 17,-1 28,-7 9,-5 17,-10 26,-15l52 -28 -3 -37c-18,8 -79,41 -89,44 -34,-5 -83,-26 -106,-31z"/>
   <path class="fil4" d="M204 121c14,3 39,14 53,20 10,4 45,19 53,16 11,-4 73,-42 92,-50l2 28 -52 29c-9,5 -18,10 -27,15 -11,7 -16,13 -28,9 -20,-8 -41,-16 -61,-23 -28,-11 -40,-10 -32,-44zm202 4c-2,-24 1,-19 17,-29l0 -7c-29,-11 -68,-19 -99,-28 -17,-4 -17,-2 -45,12 -15,7 -27,12 -42,19 -10,5 -33,13 -39,21 -10,12 -8,37 1,47 10,11 77,29 86,37 -8,2 -44,-12 -54,-16 -50,-16 -35,-8 -44,-28 -5,1 -15,8 -20,12 -4,3 -7,4 -10,6 -15,9 -2,11 0,25 8,37 -10,15 -8,39 12,7 58,15 67,17l-1 5 0 7 -1 10 -5 8 15 -3 2 13c21,-21 6,-29 22,-54l20 3c-5,-5 -62,-14 -66,-14 5,4 14,4 20,6l-3 9 -57 -14c2,-21 3,-21 -2,-42l110 23c8,17 5,27 0,44l-24 -4 -2 10c27,5 25,12 43,-4l80 -68c5,-4 10,-10 17,-12 -3,5 -2,4 -7,7 -22,19 -83,79 -101,92l-33 -9 -3 12c7,4 19,10 25,13 8,4 13,-2 21,-7l83 -51c12,-8 29,-19 41,-25 -3,14 -10,29 1,51l-105 64c-41,27 -35,27 -52,17l-53 -31c-39,-23 -48,-20 -43,-66l-9 -2c-6,17 -3,38 6,50 8,10 64,40 80,49 18,11 30,21 39,15 26,-17 52,-32 78,-48 13,-9 26,-17 40,-25 18,-12 33,-16 32,-28 -6,-3 -21,3 -14,-33 6,-33 17,-10 17,-32l-38 -19 4 -12c-17,7 -38,21 -54,27 30,-17 54,-29 81,-44l0 -12 -14 -3z"/>
  </g>
 </g>
</svg>
