<?xml version="1.0" encoding="UTF-8"?>
<!DOCTYPE svg PUBLIC "-//W3C//DTD SVG 1.1//EN" "http://www.w3.org/Graphics/SVG/1.1/DTD/svg11.dtd">
<!-- Creator: CorelDRAW X8 -->
<svg xmlns="http://www.w3.org/2000/svg" xml:space="preserve" width="598px" height="459px" version="1.1" style="shape-rendering:geometricPrecision; text-rendering:geometricPrecision; image-rendering:optimizeQuality; fill-rule:evenodd; clip-rule:evenodd"
viewBox="0 0 598 459"
 xmlns:xlink="http://www.w3.org/1999/xlink">
 <defs>
  <style type="text/css">
   <![CDATA[
    .str1 {stroke:black;stroke-width:14.9641}
    .str0 {stroke:black;stroke-width:1.99521}
    .fil5 {fill:none}
    .fil1 {fill:#FEFEFE}
    .fil0 {fill:#DCDDDD}
    .fil3 {fill:#069BD3}
    .fil2 {fill:#0C6D9A}
    .fil4 {fill:#79C8F1}
   ]]>
  </style>
 </defs>
 <g id="Layer_x0020_1">
  <metadata id="CorelCorpID_0Corel-Layer"/>
  <path class="fil0" d="M306 318c-23,7 -45,4 -57,-2 -60,-30 -18,-67 -70,-70 -54,-3 -39,-57 -7,-90 39,-41 16,-47 87,-77 27,-12 37,0 44,13 46,0 82,30 91,51 28,60 -26,59 13,96 38,37 -4,65 -48,69 -30,2 -38,9 -53,10z"/>
  <rect class="fil1" x="226" y="131" width="170" height="109"/>
  <g id="_2024934987072">
   <g>
    <path class="fil2" d="M384 252c2,-13 1,-30 -5,-39 -6,-10 -16,-11 -32,-11 -38,0 -36,19 -36,50 29,6 42,11 73,0z"/>
    <path class="fil2" d="M342 158c-27,8 -16,49 11,41 28,-7 17,-49 -11,-41z"/>
   </g>
   <g>
    <path class="fil3" d="M222 140l0 11 5 0c0,-5 -1,-17 7,-17l153 0c2,0 4,1 5,2 1,1 2,3 2,6l0 98 -131 0c10,2 18,7 24,16 5,9 8,21 9,34l52 0c7,0 2,-9 -1,-12 -4,-3 -8,-3 -13,-3l0 -10 49 0c6,0 8,0 11,-2 2,-2 5,-6 5,-9l0 -114c0,-4 -2,-7 -4,-8 -2,-2 -6,-4 -10,-4l-149 0c-4,0 -7,1 -9,3 -2,2 -5,5 -5,9zm5 97l0 -3c-1,0 -3,0 -5,-1l0 4c2,0 4,0 5,0zm0 -76l0 0 -5 0 0 2c1,0 1,0 1,-1 1,0 3,0 4,-1z"/>
    <polygon class="fil3" points="301,255 321,255 321,250 301,250 "/>
   </g>
   <g>
    <path class="fil4" d="M286 311c2,-17 1,-39 -7,-51 -8,-13 -21,-14 -42,-14 -50,-1 -47,24 -47,66 37,7 55,14 96,-1z"/>
    <path class="fil4" d="M230 188c-36,11 -20,64 15,54 36,-9 22,-65 -15,-54z"/>
   </g>
   <g>
    <path class="fil2" d="M312 135l-14 -4c0,1 0,4 0,5 0,2 0,3 0,4 -2,14 -13,25 -27,27 -6,1 -12,-1 -18,-4 -2,-1 -6,-4 -8,-6l9 -5 -7 -3c-2,-1 -21,-8 -22,-8l-5 26c0,1 -1,3 -1,3l10 -5c14,18 40,26 62,14 15,-8 23,-23 25,-38 0,-3 0,-12 -2,-16 0,2 -2,9 -2,10z"/>
    <path class="fil2" d="M304 102c-1,0 -2,-2 -3,-3 -3,-3 -6,-5 -10,-7 -9,-6 -19,-8 -29,-7 -5,0 -12,2 -17,4 -16,8 -25,23 -27,39 0,4 0,12 2,17 0,-2 2,-9 3,-10 1,0 2,1 3,1 1,0 2,1 3,1l7 2c0,-1 -1,-4 0,-9 2,-18 18,-30 35,-28 5,1 12,4 17,9l-10 6c0,0 21,7 24,8l5 2c1,-1 1,-6 2,-7 0,-2 3,-21 3,-22l-8 4z"/>
   </g>
   <g>
    <path class="fil5 str0" d="M311 129l-13 -4c-1,1 0,4 0,5 0,2 0,3 0,5 -2,13 -13,24 -27,26 -6,1 -13,-1 -18,-4 -3,-1 -6,-4 -8,-6l8 -5 -7 -3c-1,0 -20,-8 -21,-8l-5 26c0,1 -1,3 -1,4l10 -6c13,18 40,26 62,14 15,-8 23,-23 24,-38 1,-3 1,-12 -1,-16 -1,2 -2,9 -3,10z"/>
    <path class="fil5 str0" d="M303 97c0,0 -2,-3 -3,-4 -2,-2 -6,-5 -9,-7 -9,-6 -19,-8 -29,-7 -6,0 -12,2 -17,4 -17,8 -25,24 -27,40 0,3 0,11 1,16 1,-2 3,-9 3,-10 1,1 3,1 4,1 1,1 2,1 3,1l7 2c0,-1 -1,-4 0,-9 2,-18 18,-30 35,-28 4,1 12,4 16,9l-10 6c1,0 22,7 24,8l6 2c0,-1 1,-6 1,-7 0,-2 4,-21 4,-22l-9 5z"/>
   </g>
  </g>
  <path class="fil0" d="M1921 837c-24,6 -45,4 -58,-2 -59,-29 -17,-67 -69,-70 -53,-3 -39,-56 -7,-89 39,-41 16,-46 86,-76 28,-12 38,-1 45,12 45,0 80,30 90,51 28,59 -26,59 12,95 39,37 -3,65 -47,69 -30,2 -38,9 -52,10z"/>
  <line class="fil5 str1" x1="1843" y1="709" x2="1905" y2= "656" />
  <line class="fil5 str1" x1="1847" y1="738" x2="1910" y2= "791" />
  <g id="_2024934985952">
   <circle class="fil2" cx="1938" cy="787" r="50"/>
   <path class="fil4" d="M1972 823c0,-9 -1,-17 -5,-22 -6,-9 -15,-11 -29,-11 -30,0 -33,13 -33,34 9,8 20,13 33,13 13,0 25,-6 34,-14z"/>
   <path class="fil4" d="M1933 749c-25,7 -14,44 10,38 26,-7 15,-46 -10,-38z"/>
  </g>
  <g id="_2024934984640">
   <circle class="fil2" cx="1932" cy="645" r="50"/>
   <path class="fil4" d="M1966 681c0,-9 -2,-17 -5,-22 -6,-9 -15,-11 -30,-11 -30,0 -33,13 -33,34 9,8 21,13 33,13 14,0 26,-6 35,-14z"/>
   <path class="fil4" d="M1926 607c-25,7 -14,44 11,38 25,-7 15,-46 -11,-38z"/>
  </g>
  <g id="_2024934982976">
   <circle class="fil2" cx="1817" cy="724" r="50"/>
   <path class="fil4" d="M1851 760c0,-9 -2,-17 -5,-23 -6,-9 -15,-10 -30,-10 -30,0 -33,13 -33,34 9,8 21,13 33,13 14,0 26,-6 35,-14z"/>
   <path class="fil4" d="M1811 686c-25,7 -14,44 11,37 25,-6 15,-45 -11,-37z"/>
  </g>
 </g>
</svg>
